<?xml version="1.0" encoding="UTF-8"?>
<svg width="221px" height="93px" viewBox="0 0 221 93" version="1.1" xmlns="http://www.w3.org/2000/svg" xmlns:xlink="http://www.w3.org/1999/xlink">
    <!-- Generator: Sketch 40.1 (33804) - http://www.bohemiancoding.com/sketch -->
    <title>Logo</title>
    <desc>Created with Sketch.</desc>
    <defs>
        <polygon id="path-1" points="2.88396757e-14 0 275.046147 0 271.729152 93.9821577 13.6207049 93.9821577"></polygon>
    </defs>
    <g id="Page-1" stroke="none" stroke-width="1" fill="none" fill-rule="evenodd">
        <g id="Artboard-14" transform="translate(-102.000000, -111.000000)">
            <g id="Logo" transform="translate(66.000000, 110.000000)">
                <g id="Mounds">
                    <mask id="mask-2" fill="white">
                        <use xlink:href="#path-1"></use>
                    </mask>
                    <use id="Mask" fill="#D8D8D8" opacity="0" xlink:href="#path-1"></use>
                    <path d="M15.2205882,98.8499369 C15.2205882,98.8499369 47.087186,102.512425 63.9038066,60.7913513 C80.7204272,19.0702779 112.715546,22.1762383 112.715546,22.1762383 C112.715546,22.1762383 146.215717,19.0702779 163.144979,60.7913512 C180.074241,102.512425 240.601646,96.3335785 278.806584,96.3335757 C317.011523,96.3335729 15.2205882,98.8499369 15.2205882,98.8499369 Z" id="Path-8" fill="#4893FF" mask="url(#mask-2)"></path>
                    <path d="M31.1561459,95.8592528 C31.1561459,95.8592528 102.704183,96.4945939 118.320545,47.1565636 C133.936908,-2.18146657 167.124021,1.47459157 167.124021,1.47459157 C167.124021,1.47459157 195.374878,-2.18146502 211.095843,47.156565 C226.816807,96.4945951 271.798651,100.070353 307.276776,100.070349 C342.754902,100.070346 31.1561459,95.8592528 31.1561459,95.8592528 Z" id="Path-8-Copy" fill-opacity="0.899999976" fill="#FE2323" opacity="0.216126399" mask="url(#mask-2)"></path>
                    <path d="M31.1561459,95.8592528 C31.1561459,95.8592528 102.704183,96.4945939 118.320545,47.1565636 C133.936908,-2.18146657 167.124021,1.47459157 167.124021,1.47459157 C167.124021,1.47459157 195.374878,-2.18146502 211.095843,47.156565 C226.816807,96.4945951 271.798651,100.070353 307.276776,100.070349 C342.754902,100.070346 31.1561459,95.8592528 31.1561459,95.8592528 Z" id="Path-8-Copy-2" fill="#FF0005" opacity="0.474852301" mask="url(#mask-2)"></path>
                </g>
                <path d="M119.477607,52.1507534 L119.477607,75.0217391 L128.813027,75.0217391 C135.707607,75.0217391 139.765107,70.7581943 139.765107,63.4515246 C139.765107,56.1607045 135.707607,52.1507534 128.813027,52.1507534 L119.477607,52.1507534 Z M125.294414,56.8422377 L128.036396,56.8422377 C131.713505,56.8422377 133.853203,59.1721302 133.853203,63.4673742 C133.853203,68.0320616 131.824453,70.3302549 128.036396,70.3302549 L125.294414,70.3302549 L125.294414,56.8422377 Z M148.403144,65.3376281 L151.192675,65.3376281 C153.41162,65.3376281 154.758837,66.4154015 154.758837,68.1905577 C154.758837,69.8706162 153.332372,71.0276377 151.256073,71.0276377 C149.037128,71.0276377 147.658212,69.9340147 147.563114,68.2222569 L142.015751,68.2222569 C142.237646,72.675997 145.787958,75.5923251 151.160976,75.5923251 C156.850985,75.5923251 160.654891,72.8820419 160.654891,68.6818956 C160.654891,65.543673 158.451796,63.514923 155.059979,63.1979309 L155.059979,63.071134 C157.849511,62.5797961 159.814862,60.5668958 159.814862,57.7932142 C159.814862,54.0210073 156.470595,51.5801675 151.38287,51.5801675 C146.073251,51.5801675 142.538788,54.480646 142.45954,58.8868372 L147.72161,58.8868372 C147.785009,57.111681 149.132226,55.9071108 151.129276,55.9071108 C153.221425,55.9071108 154.425995,56.9373353 154.425995,58.5856947 C154.425995,60.234054 153.142177,61.327677 151.176825,61.327677 L148.403144,61.327677 L148.403144,65.3376281 Z" id="D3" fill="#FFFFFF"></path>
                <path d="M105.316004,43.5999703 L101.723231,43.5999703 L101.723231,36.5794625 L99.0318244,36.5794625 L99.0318244,45.7391304 L105.316004,45.7391304 L105.316004,43.5999703 Z M115.11621,43.5999703 L111.345703,43.5999703 L111.345703,42.127314 L114.881347,42.127314 L114.881347,40.1976265 L111.345703,40.1976265 L111.345703,38.7186226 L115.11621,38.7186226 L115.11621,36.5794625 L108.654296,36.5794625 L108.654296,45.7391304 L115.11621,45.7391304 L115.11621,43.5999703 Z M124.738682,45.7391304 L127.607823,45.7391304 L124.618077,36.5794625 L121.241124,36.5794625 L118.251377,45.7391304 L120.993565,45.7391304 L121.469639,43.9173531 L124.262608,43.9173531 L124.738682,45.7391304 Z M122.840733,38.693232 L122.891514,38.693232 L123.773838,42.0194039 L121.958409,42.0194039 L122.840733,38.693232 Z M133.447091,38.5662789 L134.564279,38.5662789 C135.287912,38.5662789 135.776681,39.0550484 135.776681,39.7342476 C135.776681,40.4261422 135.313302,40.8895211 134.557931,40.8895211 L133.447091,40.8895211 L133.447091,38.5662789 Z M133.447091,42.6668648 L134.329416,42.6668648 L135.776681,45.7391304 L138.78547,45.7391304 L137.046213,42.2669625 C138.004709,41.8099312 138.525216,40.7689156 138.525216,39.689814 C138.525216,37.7283882 137.268381,36.5794625 134.824533,36.5794625 L130.755685,36.5794625 L130.755685,45.7391304 L133.447091,45.7391304 L133.447091,42.6668648 Z M144.472395,45.7391304 L144.472395,40.9149117 L144.523177,40.9149117 L148.084212,45.7391304 L150.1472,45.7391304 L150.1472,36.5794625 L147.608137,36.5794625 L147.608137,41.3275093 L147.557356,41.3275093 L144.021712,36.5794625 L141.933333,36.5794625 L141.933333,45.7391304 L144.472395,45.7391304 Z M156.430805,45.7391304 L156.430805,36.5794625 L153.739398,36.5794625 L153.739398,45.7391304 L156.430805,45.7391304 Z M162.562065,45.7391304 L162.562065,40.9149117 L162.612847,40.9149117 L166.173882,45.7391304 L168.23687,45.7391304 L168.23687,36.5794625 L165.697808,36.5794625 L165.697808,41.3275093 L165.647026,41.3275093 L162.111382,36.5794625 L160.023003,36.5794625 L160.023003,45.7391304 L162.562065,45.7391304 Z M180.474576,41.8416695 L180.474576,40.6356148 L176.488248,40.6356148 L176.488248,42.4256539 L177.884733,42.4256539 L177.872037,42.552607 C177.795865,43.2889351 177.173795,43.7777047 176.297819,43.7777047 C175.117154,43.7777047 174.349088,42.7811226 174.349088,41.111689 C174.349088,39.4803414 175.02194,38.5408882 176.164518,38.5408882 C176.938932,38.5408882 177.541959,38.9788765 177.719694,39.6517281 L180.366666,39.6517281 C180.163541,37.7728218 178.449674,36.4207711 176.151822,36.4207711 C173.327115,36.4207711 171.606901,38.1473336 171.606901,41.149775 C171.606901,44.1903023 173.327115,45.8978218 176.234342,45.8978218 C178.89401,45.8978218 180.474576,44.3489937 180.474576,41.8416695 L180.474576,41.8416695 Z" id="LEARNING" fill="#FFFFFF" opacity="0.640511775"></path>
            </g>
        </g>
    </g>
</svg>