<?xml version="1.0" encoding="UTF-8"?>
<svg width="257px" height="190px" viewBox="0 0 257 190" version="1.1" xmlns="http://www.w3.org/2000/svg" xmlns:xlink="http://www.w3.org/1999/xlink">
    <!-- Generator: Sketch 41 (35326) - http://www.bohemiancoding.com/sketch -->
    <title>video</title>
    <desc>Created with Sketch.</desc>
    <defs></defs>
    <g id="Page-1" stroke="none" stroke-width="1" fill="none" fill-rule="evenodd">
        <g id="Artboard-14" transform="translate(-205.000000, -951.000000)">
            <g id="video" transform="translate(204.000000, 951.000000)">
                <polygon id="Rectangle-25" fill="#0D2F71" transform="translate(18.131971, 121.151961) rotate(-315.000000) translate(-18.131971, -121.151961) " points="9.8767868 104.87437 26.387155 121.144483 10.1020865 137.429552"></polygon>
                <polygon id="Rectangle-25" fill="#0D2F71" transform="translate(239.739942, 121.268414) scale(-1, 1) rotate(-315.000000) translate(-239.739942, -121.268414) " points="232.224802 104.308939 248.573015 120.561743 230.906868 138.22789"></polygon>
                <rect id="Rectangle-22" fill="#FFFFFF" x="24" y="0" width="209" height="152" rx="7"></rect>
                <circle id="Oval" fill="#5F83C8" cx="128.5" cy="71.5" r="35.5"></circle>
                <polygon id="Rectangle-23" fill="#FFFFFF" points="123 58 139.263456 69.7650003 123 81.5300007"></polygon>
                <rect id="Rectangle-24" fill="#1A5CDC" x="1" y="127" width="257" height="63"></rect>
                <path d="M40.775,154.3 L34.875,154.3 L34.875,157.45 L40.25,157.45 L40.25,161.6 L34.875,161.6 L34.875,169 L29.975,169 L29.975,150.15 L40.775,150.15 L40.775,154.3 Z M51.9,158.575 L52.825,158.575 C53.7916715,158.575 54.5333307,158.375002 55.05,157.975 C55.5666692,157.574998 55.825,157.000004 55.825,156.25 C55.825,155.499996 55.5666692,154.925002 55.05,154.525 C54.5333307,154.124998 53.7916715,153.925 52.825,153.925 L51.9,153.925 L51.9,158.575 Z M62.675,169 L56.575,169 L51.9,161.75 L51.9,169 L47,169 L47,150.15 L54.625,150.15 C55.6750052,150.15 56.5916627,150.304165 57.375,150.6125 C58.1583372,150.920835 58.8041641,151.341664 59.3125,151.875 C59.8208358,152.408336 60.2041653,153.024996 60.4625,153.725 C60.7208346,154.425004 60.85,155.174996 60.85,155.975 C60.85,157.408341 60.5041701,158.570829 59.8125,159.4625 C59.1208298,160.354171 58.1000067,160.958332 56.75,161.275 L62.675,169 Z M78.7499999,154.3 L72.9249999,154.3 L72.9249999,157.45 L78.4249999,157.45 L78.4249999,161.6 L72.9249999,161.6 L72.9249999,164.85 L78.7499999,164.85 L78.7499999,169 L68.0249999,169 L68.0249999,150.15 L78.7499999,150.15 L78.7499999,154.3 Z M96.2999999,154.3 L90.4749999,154.3 L90.4749999,157.45 L95.9749999,157.45 L95.9749999,161.6 L90.4749999,161.6 L90.4749999,164.85 L96.2999999,164.85 L96.2999999,169 L85.5749999,169 L85.5749999,150.15 L96.2999999,150.15 L96.2999999,154.3 Z M119.825,150.15 L119.825,164.85 L125.7,164.85 L125.7,169 L114.925,169 L114.925,150.15 L119.825,150.15 Z M142.25,154.3 L136.425,154.3 L136.425,157.45 L141.925,157.45 L141.925,161.6 L136.425,161.6 L136.425,164.85 L142.25,164.85 L142.25,169 L131.525,169 L131.525,150.15 L142.25,150.15 L142.25,154.3 Z M159.425,154.975 C158.891664,154.541664 158.358336,154.220834 157.825,154.0125 C157.291664,153.804166 156.775002,153.7 156.275,153.7 C155.641663,153.7 155.125002,153.849998 154.725,154.15 C154.324998,154.450001 154.125,154.841664 154.125,155.325 C154.125,155.658335 154.224999,155.933332 154.425,156.15 C154.625001,156.366668 154.887498,156.554166 155.2125,156.7125 C155.537501,156.870834 155.904164,157.008333 156.3125,157.125 C156.720835,157.241667 157.124998,157.366666 157.525,157.5 C159.125008,158.033336 160.295829,158.745829 161.0375,159.6375 C161.77917,160.529171 162.15,161.69166 162.15,163.125 C162.15,164.091671 161.987501,164.966663 161.6625,165.75 C161.337498,166.533337 160.862503,167.204164 160.2375,167.7625 C159.612497,168.320836 158.845838,168.754165 157.9375,169.0625 C157.029162,169.370835 156.000005,169.525 154.85,169.525 C152.466654,169.525 150.258343,168.816674 148.225,167.4 L150.325,163.45 C151.058337,164.100003 151.783329,164.583332 152.5,164.9 C153.21667,165.216668 153.924996,165.375 154.625,165.375 C155.425004,165.375 156.020831,165.191668 156.4125,164.825 C156.804168,164.458331 157,164.041669 157,163.575 C157,163.291665 156.95,163.045834 156.85,162.8375 C156.749999,162.629166 156.583334,162.437501 156.35,162.2625 C156.116665,162.087499 155.812502,161.925001 155.4375,161.775 C155.062498,161.624999 154.608336,161.458334 154.075,161.275 C153.441663,161.074999 152.820836,160.854168 152.2125,160.6125 C151.604163,160.370832 151.062502,160.050002 150.5875,159.65 C150.112497,159.249998 149.729168,158.745836 149.4375,158.1375 C149.145832,157.529164 149,156.758338 149,155.825 C149,154.891662 149.154165,154.045837 149.4625,153.2875 C149.770835,152.529163 150.204164,151.879169 150.7625,151.3375 C151.320836,150.795831 152.004162,150.375001 152.8125,150.075 C153.620837,149.774999 154.524995,149.625 155.525,149.625 C156.458338,149.625 157.433328,149.754165 158.45,150.0125 C159.466671,150.270835 160.441662,150.649997 161.375,151.15 L159.425,154.975 Z M178.875,154.975 C178.341664,154.541664 177.808336,154.220834 177.275,154.0125 C176.741664,153.804166 176.225002,153.7 175.725,153.7 C175.091663,153.7 174.575002,153.849998 174.175,154.15 C173.774998,154.450001 173.575,154.841664 173.575,155.325 C173.575,155.658335 173.674999,155.933332 173.875,156.15 C174.075001,156.366668 174.337498,156.554166 174.6625,156.7125 C174.987501,156.870834 175.354164,157.008333 175.7625,157.125 C176.170835,157.241667 176.574998,157.366666 176.975,157.5 C178.575008,158.033336 179.745829,158.745829 180.4875,159.6375 C181.22917,160.529171 181.6,161.69166 181.6,163.125 C181.6,164.091671 181.437501,164.966663 181.1125,165.75 C180.787498,166.533337 180.312503,167.204164 179.6875,167.7625 C179.062496,168.320836 178.295837,168.754165 177.3875,169.0625 C176.479162,169.370835 175.450005,169.525 174.3,169.525 C171.916654,169.525 169.708343,168.816674 167.675,167.4 L169.775,163.45 C170.508337,164.100003 171.233329,164.583332 171.95,164.9 C172.66667,165.216668 173.374996,165.375 174.075,165.375 C174.875004,165.375 175.470831,165.191668 175.8625,164.825 C176.254168,164.458331 176.45,164.041669 176.45,163.575 C176.45,163.291665 176.4,163.045834 176.3,162.8375 C176.199999,162.629166 176.033334,162.437501 175.8,162.2625 C175.566665,162.087499 175.262501,161.925001 174.8875,161.775 C174.512498,161.624999 174.058336,161.458334 173.525,161.275 C172.891663,161.074999 172.270836,160.854168 171.6625,160.6125 C171.054163,160.370832 170.512502,160.050002 170.0375,159.65 C169.562497,159.249998 169.179168,158.745836 168.8875,158.1375 C168.595831,157.529164 168.45,156.758338 168.45,155.825 C168.45,154.891662 168.604165,154.045837 168.9125,153.2875 C169.220834,152.529163 169.654163,151.879169 170.2125,151.3375 C170.770836,150.795831 171.454162,150.375001 172.2625,150.075 C173.070837,149.774999 173.974995,149.625 174.975,149.625 C175.908338,149.625 176.883328,149.754165 177.9,150.0125 C178.916671,150.270835 179.891662,150.649997 180.825,151.15 L178.875,154.975 Z M192.25,159.575 C192.25,160.325004 192.391665,161.016663 192.675,161.65 C192.958334,162.283336 193.341664,162.833331 193.825,163.3 C194.308335,163.766669 194.87083,164.129165 195.5125,164.3875 C196.154169,164.645835 196.833329,164.775 197.55,164.775 C198.26667,164.775 198.94583,164.645835 199.5875,164.3875 C200.229169,164.129165 200.79583,163.766669 201.2875,163.3 C201.779169,162.833331 202.166665,162.283336 202.45,161.65 C202.733334,161.016663 202.875,160.325004 202.875,159.575 C202.875,158.824996 202.733334,158.133336 202.45,157.5 C202.166665,156.866663 201.779169,156.316669 201.2875,155.85 C200.79583,155.383331 200.229169,155.020835 199.5875,154.7625 C198.94583,154.504165 198.26667,154.375 197.55,154.375 C196.833329,154.375 196.154169,154.504165 195.5125,154.7625 C194.87083,155.020835 194.308335,155.383331 193.825,155.85 C193.341664,156.316669 192.958334,156.866663 192.675,157.5 C192.391665,158.133336 192.25,158.824996 192.25,159.575 Z M187.125,159.575 C187.125,158.174993 187.38333,156.870839 187.9,155.6625 C188.416669,154.454161 189.133328,153.400004 190.05,152.5 C190.966671,151.599996 192.062493,150.895836 193.3375,150.3875 C194.612506,149.879164 196.016659,149.625 197.55,149.625 C199.066674,149.625 200.46666,149.879164 201.75,150.3875 C203.033339,150.895836 204.137495,151.599996 205.0625,152.5 C205.987504,153.400004 206.70833,154.454161 207.225,155.6625 C207.741669,156.870839 208,158.174993 208,159.575 C208,160.975007 207.741669,162.279161 207.225,163.4875 C206.70833,164.695839 205.987504,165.749996 205.0625,166.65 C204.137495,167.550005 203.033339,168.254164 201.75,168.7625 C200.46666,169.270836 199.066674,169.525 197.55,169.525 C196.016659,169.525 194.612506,169.270836 193.3375,168.7625 C192.062493,168.254164 190.966671,167.550005 190.05,166.65 C189.133328,165.749996 188.416669,164.695839 187.9,163.4875 C187.38333,162.279161 187.125,160.975007 187.125,159.575 Z M214.4,169 L214.4,150.15 L219.3,150.15 L228.35,161.675 L228.35,150.15 L233.225,150.15 L233.225,169 L228.35,169 L219.3,157.475 L219.3,169 L214.4,169 Z" id="FREE-LESSON" fill="#FFFFFF"></path>
            </g>
        </g>
    </g>
</svg>